<svg xmlns="http://www.w3.org/2000/svg" xmlns:xlink="http://www.w3.org/1999/xlink" version="1.1" id="Layer_1" x="0px" y="0px" width="100px" height="100px" viewBox="0 0 100 100" enable-background="new 0 0 100 100" xml:space="preserve">
<g>
	<path fill-rule="evenodd" clip-rule="evenodd" d="M89.646,78.092H9.355c-3.327,0-6.022-2.697-6.022-6.022c0-1.148,0-1.721,0-2.007   c0,0,0-0.099,0-0.243c0-0.58,0-2.164,0-3.771c0,0,7.445,0,18.065,0c21.702,0,19.571-19.238,15.909-31.72   c-2.405-2.807-3.866-6.445-3.866-10.432c0-8.868,7.19-16.058,16.058-16.058s16.059,7.19,16.059,16.058   c0,4.116-1.561,7.856-4.109,10.699c-8.059,28.204,16.152,31.454,16.152,31.454c6.053,0,10.993,0,13.988,0c2.596,0,4.077,0,4.077,0   s0,2.697,0,6.021C95.667,75.395,92.97,78.092,89.646,78.092z M91.621,88.617c0,1.961-1.615,3.553-3.614,3.553H10.996   c-1.996,0-3.626-1.592-3.626-3.553l-0.021-6.512h84.305L91.621,88.617z"/>
</g>
</svg>